<mxfile host="app.diagrams.net" modified="2024-05-11T20:09:52.835Z" agent="Mozilla/5.0 (Windows NT 10.0; Win64; x64) AppleWebKit/537.36 (KHTML, like Gecko) Chrome/126.0.0.0 Safari/537.36" etag="Wj1tvbITq4PJUG0grK_C" version="24.4.0" type="github">
  <diagram id="R2lEEEUBdFMjLlhIrx00" name="MER-V1">
    <mxGraphModel dx="2417" dy="541" grid="0" gridSize="10" guides="1" tooltips="1" connect="1" arrows="1" fold="1" page="1" pageScale="1" pageWidth="850" pageHeight="1100" math="0" shadow="1" extFonts="Permanent Marker^https://fonts.googleapis.com/css?family=Permanent+Marker">
      <root>
        <mxCell id="0" />
        <mxCell id="1" parent="0" />
        <mxCell id="C-vyLk0tnHw3VtMMgP7b-1" value="" style="edgeStyle=entityRelationEdgeStyle;endArrow=ERzeroToMany;startArrow=ERone;endFill=1;startFill=0;fillColor=#dae8fc;strokeColor=#6c8ebf;" parent="1" source="C-vyLk0tnHw3VtMMgP7b-24" target="C-vyLk0tnHw3VtMMgP7b-6" edge="1">
          <mxGeometry width="100" height="100" relative="1" as="geometry">
            <mxPoint x="340" y="720" as="sourcePoint" />
            <mxPoint x="440" y="620" as="targetPoint" />
          </mxGeometry>
        </mxCell>
        <mxCell id="C-vyLk0tnHw3VtMMgP7b-12" value="" style="edgeStyle=entityRelationEdgeStyle;endArrow=ERoneToMany;startArrow=ERone;endFill=1;startFill=0;fillColor=#ffe6cc;strokeColor=#d79b00;" parent="1" source="C-vyLk0tnHw3VtMMgP7b-3" target="C-vyLk0tnHw3VtMMgP7b-17" edge="1">
          <mxGeometry width="100" height="100" relative="1" as="geometry">
            <mxPoint x="400" y="180" as="sourcePoint" />
            <mxPoint x="460" y="205" as="targetPoint" />
          </mxGeometry>
        </mxCell>
        <mxCell id="C-vyLk0tnHw3VtMMgP7b-2" value="City" style="shape=table;startSize=30;container=1;collapsible=1;childLayout=tableLayout;fixedRows=1;rowLines=0;fontStyle=1;align=center;resizeLast=1;" parent="1" vertex="1">
          <mxGeometry x="450" y="120" width="250" height="130" as="geometry" />
        </mxCell>
        <mxCell id="C-vyLk0tnHw3VtMMgP7b-3" value="" style="shape=partialRectangle;collapsible=0;dropTarget=0;pointerEvents=0;fillColor=none;points=[[0,0.5],[1,0.5]];portConstraint=eastwest;top=0;left=0;right=0;bottom=1;" parent="C-vyLk0tnHw3VtMMgP7b-2" vertex="1">
          <mxGeometry y="30" width="250" height="30" as="geometry" />
        </mxCell>
        <mxCell id="C-vyLk0tnHw3VtMMgP7b-4" value="PK" style="shape=partialRectangle;overflow=hidden;connectable=0;fillColor=none;top=0;left=0;bottom=0;right=0;fontStyle=1;" parent="C-vyLk0tnHw3VtMMgP7b-3" vertex="1">
          <mxGeometry width="30" height="30" as="geometry">
            <mxRectangle width="30" height="30" as="alternateBounds" />
          </mxGeometry>
        </mxCell>
        <mxCell id="C-vyLk0tnHw3VtMMgP7b-5" value="city_idÂ int NOT NULL " style="shape=partialRectangle;overflow=hidden;connectable=0;fillColor=none;top=0;left=0;bottom=0;right=0;align=left;spacingLeft=6;fontStyle=5;" parent="C-vyLk0tnHw3VtMMgP7b-3" vertex="1">
          <mxGeometry x="30" width="220" height="30" as="geometry">
            <mxRectangle width="220" height="30" as="alternateBounds" />
          </mxGeometry>
        </mxCell>
        <mxCell id="C-vyLk0tnHw3VtMMgP7b-6" value="" style="shape=partialRectangle;collapsible=0;dropTarget=0;pointerEvents=0;fillColor=none;points=[[0,0.5],[1,0.5]];portConstraint=eastwest;top=0;left=0;right=0;bottom=0;" parent="C-vyLk0tnHw3VtMMgP7b-2" vertex="1">
          <mxGeometry y="60" width="250" height="30" as="geometry" />
        </mxCell>
        <mxCell id="C-vyLk0tnHw3VtMMgP7b-7" value="FK1" style="shape=partialRectangle;overflow=hidden;connectable=0;fillColor=none;top=0;left=0;bottom=0;right=0;" parent="C-vyLk0tnHw3VtMMgP7b-6" vertex="1">
          <mxGeometry width="30" height="30" as="geometry">
            <mxRectangle width="30" height="30" as="alternateBounds" />
          </mxGeometry>
        </mxCell>
        <mxCell id="C-vyLk0tnHw3VtMMgP7b-8" value="county_id int NOT NULL" style="shape=partialRectangle;overflow=hidden;connectable=0;fillColor=none;top=0;left=0;bottom=0;right=0;align=left;spacingLeft=6;" parent="C-vyLk0tnHw3VtMMgP7b-6" vertex="1">
          <mxGeometry x="30" width="220" height="30" as="geometry">
            <mxRectangle width="220" height="30" as="alternateBounds" />
          </mxGeometry>
        </mxCell>
        <mxCell id="C-vyLk0tnHw3VtMMgP7b-9" value="" style="shape=partialRectangle;collapsible=0;dropTarget=0;pointerEvents=0;fillColor=none;points=[[0,0.5],[1,0.5]];portConstraint=eastwest;top=0;left=0;right=0;bottom=0;" parent="C-vyLk0tnHw3VtMMgP7b-2" vertex="1">
          <mxGeometry y="90" width="250" height="30" as="geometry" />
        </mxCell>
        <mxCell id="C-vyLk0tnHw3VtMMgP7b-10" value="" style="shape=partialRectangle;overflow=hidden;connectable=0;fillColor=none;top=0;left=0;bottom=0;right=0;" parent="C-vyLk0tnHw3VtMMgP7b-9" vertex="1">
          <mxGeometry width="30" height="30" as="geometry">
            <mxRectangle width="30" height="30" as="alternateBounds" />
          </mxGeometry>
        </mxCell>
        <mxCell id="C-vyLk0tnHw3VtMMgP7b-11" value="city_date date NOT NULL" style="shape=partialRectangle;overflow=hidden;connectable=0;fillColor=none;top=0;left=0;bottom=0;right=0;align=left;spacingLeft=6;" parent="C-vyLk0tnHw3VtMMgP7b-9" vertex="1">
          <mxGeometry x="30" width="220" height="30" as="geometry">
            <mxRectangle width="220" height="30" as="alternateBounds" />
          </mxGeometry>
        </mxCell>
        <mxCell id="C-vyLk0tnHw3VtMMgP7b-13" value="Cell" style="shape=table;startSize=30;container=1;collapsible=1;childLayout=tableLayout;fixedRows=1;rowLines=0;fontStyle=1;align=center;resizeLast=1;" parent="1" vertex="1">
          <mxGeometry x="484" y="371" width="250" height="250" as="geometry" />
        </mxCell>
        <mxCell id="C-vyLk0tnHw3VtMMgP7b-14" value="" style="shape=partialRectangle;collapsible=0;dropTarget=0;pointerEvents=0;fillColor=none;points=[[0,0.5],[1,0.5]];portConstraint=eastwest;top=0;left=0;right=0;bottom=1;" parent="C-vyLk0tnHw3VtMMgP7b-13" vertex="1">
          <mxGeometry y="30" width="250" height="30" as="geometry" />
        </mxCell>
        <mxCell id="C-vyLk0tnHw3VtMMgP7b-15" value="PK" style="shape=partialRectangle;overflow=hidden;connectable=0;fillColor=none;top=0;left=0;bottom=0;right=0;fontStyle=1;" parent="C-vyLk0tnHw3VtMMgP7b-14" vertex="1">
          <mxGeometry width="30" height="30" as="geometry">
            <mxRectangle width="30" height="30" as="alternateBounds" />
          </mxGeometry>
        </mxCell>
        <mxCell id="C-vyLk0tnHw3VtMMgP7b-16" value="cell_id int NOT NULL " style="shape=partialRectangle;overflow=hidden;connectable=0;fillColor=none;top=0;left=0;bottom=0;right=0;align=left;spacingLeft=6;fontStyle=5;" parent="C-vyLk0tnHw3VtMMgP7b-14" vertex="1">
          <mxGeometry x="30" width="220" height="30" as="geometry">
            <mxRectangle width="220" height="30" as="alternateBounds" />
          </mxGeometry>
        </mxCell>
        <mxCell id="C-vyLk0tnHw3VtMMgP7b-17" value="" style="shape=partialRectangle;collapsible=0;dropTarget=0;pointerEvents=0;fillColor=none;points=[[0,0.5],[1,0.5]];portConstraint=eastwest;top=0;left=0;right=0;bottom=0;" parent="C-vyLk0tnHw3VtMMgP7b-13" vertex="1">
          <mxGeometry y="60" width="250" height="30" as="geometry" />
        </mxCell>
        <mxCell id="C-vyLk0tnHw3VtMMgP7b-18" value="FK3" style="shape=partialRectangle;overflow=hidden;connectable=0;fillColor=none;top=0;left=0;bottom=0;right=0;" parent="C-vyLk0tnHw3VtMMgP7b-17" vertex="1">
          <mxGeometry width="30" height="30" as="geometry">
            <mxRectangle width="30" height="30" as="alternateBounds" />
          </mxGeometry>
        </mxCell>
        <mxCell id="C-vyLk0tnHw3VtMMgP7b-19" value="city_id int NOT NULL" style="shape=partialRectangle;overflow=hidden;connectable=0;fillColor=none;top=0;left=0;bottom=0;right=0;align=left;spacingLeft=6;" parent="C-vyLk0tnHw3VtMMgP7b-17" vertex="1">
          <mxGeometry x="30" width="220" height="30" as="geometry">
            <mxRectangle width="220" height="30" as="alternateBounds" />
          </mxGeometry>
        </mxCell>
        <mxCell id="C-vyLk0tnHw3VtMMgP7b-20" value="" style="shape=partialRectangle;collapsible=0;dropTarget=0;pointerEvents=0;fillColor=none;points=[[0,0.5],[1,0.5]];portConstraint=eastwest;top=0;left=0;right=0;bottom=0;" parent="C-vyLk0tnHw3VtMMgP7b-13" vertex="1">
          <mxGeometry y="90" width="250" height="30" as="geometry" />
        </mxCell>
        <mxCell id="C-vyLk0tnHw3VtMMgP7b-21" value="" style="shape=partialRectangle;overflow=hidden;connectable=0;fillColor=none;top=0;left=0;bottom=0;right=0;" parent="C-vyLk0tnHw3VtMMgP7b-20" vertex="1">
          <mxGeometry width="30" height="30" as="geometry">
            <mxRectangle width="30" height="30" as="alternateBounds" />
          </mxGeometry>
        </mxCell>
        <mxCell id="C-vyLk0tnHw3VtMMgP7b-22" value="is_active char(1) NOT NULL" style="shape=partialRectangle;overflow=hidden;connectable=0;fillColor=none;top=0;left=0;bottom=0;right=0;align=left;spacingLeft=6;" parent="C-vyLk0tnHw3VtMMgP7b-20" vertex="1">
          <mxGeometry x="30" width="220" height="30" as="geometry">
            <mxRectangle width="220" height="30" as="alternateBounds" />
          </mxGeometry>
        </mxCell>
        <mxCell id="BW3WOsrzkd-29kcLcKj7-109" value="" style="shape=partialRectangle;collapsible=0;dropTarget=0;pointerEvents=0;fillColor=none;points=[[0,0.5],[1,0.5]];portConstraint=eastwest;top=0;left=0;right=0;bottom=0;" parent="C-vyLk0tnHw3VtMMgP7b-13" vertex="1">
          <mxGeometry y="120" width="250" height="30" as="geometry" />
        </mxCell>
        <mxCell id="BW3WOsrzkd-29kcLcKj7-110" value="" style="shape=partialRectangle;overflow=hidden;connectable=0;fillColor=none;top=0;left=0;bottom=0;right=0;" parent="BW3WOsrzkd-29kcLcKj7-109" vertex="1">
          <mxGeometry width="30" height="30" as="geometry">
            <mxRectangle width="30" height="30" as="alternateBounds" />
          </mxGeometry>
        </mxCell>
        <mxCell id="BW3WOsrzkd-29kcLcKj7-111" value="cell_name char(50) NOT NULL" style="shape=partialRectangle;overflow=hidden;connectable=0;fillColor=none;top=0;left=0;bottom=0;right=0;align=left;spacingLeft=6;" parent="BW3WOsrzkd-29kcLcKj7-109" vertex="1">
          <mxGeometry x="30" width="220" height="30" as="geometry">
            <mxRectangle width="220" height="30" as="alternateBounds" />
          </mxGeometry>
        </mxCell>
        <mxCell id="BW3WOsrzkd-29kcLcKj7-143" value="" style="shape=partialRectangle;collapsible=0;dropTarget=0;pointerEvents=0;fillColor=none;points=[[0,0.5],[1,0.5]];portConstraint=eastwest;top=0;left=0;right=0;bottom=0;" parent="C-vyLk0tnHw3VtMMgP7b-13" vertex="1">
          <mxGeometry y="150" width="250" height="30" as="geometry" />
        </mxCell>
        <mxCell id="BW3WOsrzkd-29kcLcKj7-144" value="" style="shape=partialRectangle;overflow=hidden;connectable=0;fillColor=none;top=0;left=0;bottom=0;right=0;" parent="BW3WOsrzkd-29kcLcKj7-143" vertex="1">
          <mxGeometry width="30" height="30" as="geometry">
            <mxRectangle width="30" height="30" as="alternateBounds" />
          </mxGeometry>
        </mxCell>
        <mxCell id="BW3WOsrzkd-29kcLcKj7-145" value="mission char(5000) NOT NULL" style="shape=partialRectangle;overflow=hidden;connectable=0;fillColor=none;top=0;left=0;bottom=0;right=0;align=left;spacingLeft=6;" parent="BW3WOsrzkd-29kcLcKj7-143" vertex="1">
          <mxGeometry x="30" width="220" height="30" as="geometry">
            <mxRectangle width="220" height="30" as="alternateBounds" />
          </mxGeometry>
        </mxCell>
        <mxCell id="BW3WOsrzkd-29kcLcKj7-147" value="" style="shape=partialRectangle;collapsible=0;dropTarget=0;pointerEvents=0;fillColor=none;points=[[0,0.5],[1,0.5]];portConstraint=eastwest;top=0;left=0;right=0;bottom=0;" parent="C-vyLk0tnHw3VtMMgP7b-13" vertex="1">
          <mxGeometry y="180" width="250" height="30" as="geometry" />
        </mxCell>
        <mxCell id="BW3WOsrzkd-29kcLcKj7-148" value="" style="shape=partialRectangle;overflow=hidden;connectable=0;fillColor=none;top=0;left=0;bottom=0;right=0;" parent="BW3WOsrzkd-29kcLcKj7-147" vertex="1">
          <mxGeometry width="30" height="30" as="geometry">
            <mxRectangle width="30" height="30" as="alternateBounds" />
          </mxGeometry>
        </mxCell>
        <mxCell id="BW3WOsrzkd-29kcLcKj7-149" value="vission char(5000) NOT NULL" style="shape=partialRectangle;overflow=hidden;connectable=0;fillColor=none;top=0;left=0;bottom=0;right=0;align=left;spacingLeft=6;" parent="BW3WOsrzkd-29kcLcKj7-147" vertex="1">
          <mxGeometry x="30" width="220" height="30" as="geometry">
            <mxRectangle width="220" height="30" as="alternateBounds" />
          </mxGeometry>
        </mxCell>
        <mxCell id="BW3WOsrzkd-29kcLcKj7-236" value="" style="shape=partialRectangle;collapsible=0;dropTarget=0;pointerEvents=0;fillColor=none;points=[[0,0.5],[1,0.5]];portConstraint=eastwest;top=0;left=0;right=0;bottom=0;" parent="C-vyLk0tnHw3VtMMgP7b-13" vertex="1">
          <mxGeometry y="210" width="250" height="30" as="geometry" />
        </mxCell>
        <mxCell id="BW3WOsrzkd-29kcLcKj7-237" value="" style="shape=partialRectangle;overflow=hidden;connectable=0;fillColor=none;top=0;left=0;bottom=0;right=0;" parent="BW3WOsrzkd-29kcLcKj7-236" vertex="1">
          <mxGeometry width="30" height="30" as="geometry">
            <mxRectangle width="30" height="30" as="alternateBounds" />
          </mxGeometry>
        </mxCell>
        <mxCell id="BW3WOsrzkd-29kcLcKj7-238" value="logo blob NOT NULL" style="shape=partialRectangle;overflow=hidden;connectable=0;fillColor=none;top=0;left=0;bottom=0;right=0;align=left;spacingLeft=6;" parent="BW3WOsrzkd-29kcLcKj7-236" vertex="1">
          <mxGeometry x="30" width="220" height="30" as="geometry">
            <mxRectangle width="220" height="30" as="alternateBounds" />
          </mxGeometry>
        </mxCell>
        <mxCell id="C-vyLk0tnHw3VtMMgP7b-23" value="Country" style="shape=table;startSize=30;container=1;collapsible=1;childLayout=tableLayout;fixedRows=1;rowLines=0;fontStyle=1;align=center;resizeLast=1;" parent="1" vertex="1">
          <mxGeometry x="120" y="120" width="250" height="100" as="geometry" />
        </mxCell>
        <mxCell id="C-vyLk0tnHw3VtMMgP7b-24" value="" style="shape=partialRectangle;collapsible=0;dropTarget=0;pointerEvents=0;fillColor=none;points=[[0,0.5],[1,0.5]];portConstraint=eastwest;top=0;left=0;right=0;bottom=1;" parent="C-vyLk0tnHw3VtMMgP7b-23" vertex="1">
          <mxGeometry y="30" width="250" height="30" as="geometry" />
        </mxCell>
        <mxCell id="C-vyLk0tnHw3VtMMgP7b-25" value="PK" style="shape=partialRectangle;overflow=hidden;connectable=0;fillColor=none;top=0;left=0;bottom=0;right=0;fontStyle=1;" parent="C-vyLk0tnHw3VtMMgP7b-24" vertex="1">
          <mxGeometry width="30" height="30" as="geometry">
            <mxRectangle width="30" height="30" as="alternateBounds" />
          </mxGeometry>
        </mxCell>
        <mxCell id="C-vyLk0tnHw3VtMMgP7b-26" value="country_id int NOT NULL " style="shape=partialRectangle;overflow=hidden;connectable=0;fillColor=none;top=0;left=0;bottom=0;right=0;align=left;spacingLeft=6;fontStyle=5;" parent="C-vyLk0tnHw3VtMMgP7b-24" vertex="1">
          <mxGeometry x="30" width="220" height="30" as="geometry">
            <mxRectangle width="220" height="30" as="alternateBounds" />
          </mxGeometry>
        </mxCell>
        <mxCell id="C-vyLk0tnHw3VtMMgP7b-27" value="" style="shape=partialRectangle;collapsible=0;dropTarget=0;pointerEvents=0;fillColor=none;points=[[0,0.5],[1,0.5]];portConstraint=eastwest;top=0;left=0;right=0;bottom=0;" parent="C-vyLk0tnHw3VtMMgP7b-23" vertex="1">
          <mxGeometry y="60" width="250" height="30" as="geometry" />
        </mxCell>
        <mxCell id="C-vyLk0tnHw3VtMMgP7b-28" value="" style="shape=partialRectangle;overflow=hidden;connectable=0;fillColor=none;top=0;left=0;bottom=0;right=0;" parent="C-vyLk0tnHw3VtMMgP7b-27" vertex="1">
          <mxGeometry width="30" height="30" as="geometry">
            <mxRectangle width="30" height="30" as="alternateBounds" />
          </mxGeometry>
        </mxCell>
        <mxCell id="C-vyLk0tnHw3VtMMgP7b-29" value="country_name char(50) NOT NULL" style="shape=partialRectangle;overflow=hidden;connectable=0;fillColor=none;top=0;left=0;bottom=0;right=0;align=left;spacingLeft=6;" parent="C-vyLk0tnHw3VtMMgP7b-27" vertex="1">
          <mxGeometry x="30" width="220" height="30" as="geometry">
            <mxRectangle width="220" height="30" as="alternateBounds" />
          </mxGeometry>
        </mxCell>
        <mxCell id="BW3WOsrzkd-29kcLcKj7-1" value="Person" style="shape=table;startSize=29;container=1;collapsible=1;childLayout=tableLayout;fixedRows=1;rowLines=0;fontStyle=1;align=center;resizeLast=1;" parent="1" vertex="1">
          <mxGeometry x="111" y="645" width="250" height="263.07" as="geometry" />
        </mxCell>
        <mxCell id="BW3WOsrzkd-29kcLcKj7-2" value="" style="shape=partialRectangle;collapsible=0;dropTarget=0;pointerEvents=0;fillColor=none;points=[[0,0.5],[1,0.5]];portConstraint=eastwest;top=0;left=0;right=0;bottom=1;" parent="BW3WOsrzkd-29kcLcKj7-1" vertex="1">
          <mxGeometry y="29" width="250" height="30" as="geometry" />
        </mxCell>
        <mxCell id="BW3WOsrzkd-29kcLcKj7-3" value="PK" style="shape=partialRectangle;overflow=hidden;connectable=0;fillColor=none;top=0;left=0;bottom=0;right=0;fontStyle=1;" parent="BW3WOsrzkd-29kcLcKj7-2" vertex="1">
          <mxGeometry width="33.92857142857159" height="30" as="geometry">
            <mxRectangle width="33.92857142857159" height="30" as="alternateBounds" />
          </mxGeometry>
        </mxCell>
        <mxCell id="BW3WOsrzkd-29kcLcKj7-4" value="person_idÂ int NOT NULL " style="shape=partialRectangle;overflow=hidden;connectable=0;fillColor=none;top=0;left=0;bottom=0;right=0;align=left;spacingLeft=6;fontStyle=5;" parent="BW3WOsrzkd-29kcLcKj7-2" vertex="1">
          <mxGeometry x="33.92857142857159" width="216.0714285714284" height="30" as="geometry">
            <mxRectangle width="216.0714285714284" height="30" as="alternateBounds" />
          </mxGeometry>
        </mxCell>
        <mxCell id="BW3WOsrzkd-29kcLcKj7-36" value="" style="shape=partialRectangle;collapsible=0;dropTarget=0;pointerEvents=0;fillColor=none;points=[[0,0.5],[1,0.5]];portConstraint=eastwest;top=0;left=0;right=0;bottom=0;" parent="BW3WOsrzkd-29kcLcKj7-1" vertex="1">
          <mxGeometry y="59" width="250" height="30" as="geometry" />
        </mxCell>
        <mxCell id="BW3WOsrzkd-29kcLcKj7-37" value="FK8" style="shape=partialRectangle;overflow=hidden;connectable=0;fillColor=none;top=0;left=0;bottom=0;right=0;" parent="BW3WOsrzkd-29kcLcKj7-36" vertex="1">
          <mxGeometry width="33.92857142857159" height="30" as="geometry">
            <mxRectangle width="33.92857142857159" height="30" as="alternateBounds" />
          </mxGeometry>
        </mxCell>
        <mxCell id="BW3WOsrzkd-29kcLcKj7-38" value="cell_id int NOT NULL" style="shape=partialRectangle;overflow=hidden;connectable=0;fillColor=none;top=0;left=0;bottom=0;right=0;align=left;spacingLeft=6;" parent="BW3WOsrzkd-29kcLcKj7-36" vertex="1">
          <mxGeometry x="33.92857142857159" width="216.0714285714284" height="30" as="geometry">
            <mxRectangle width="216.0714285714284" height="30" as="alternateBounds" />
          </mxGeometry>
        </mxCell>
        <mxCell id="BW3WOsrzkd-29kcLcKj7-5" value="" style="shape=partialRectangle;collapsible=0;dropTarget=0;pointerEvents=0;fillColor=none;points=[[0,0.5],[1,0.5]];portConstraint=eastwest;top=0;left=0;right=0;bottom=0;" parent="BW3WOsrzkd-29kcLcKj7-1" vertex="1">
          <mxGeometry y="89" width="250" height="23" as="geometry" />
        </mxCell>
        <mxCell id="BW3WOsrzkd-29kcLcKj7-6" value="" style="shape=partialRectangle;overflow=hidden;connectable=0;fillColor=none;top=0;left=0;bottom=0;right=0;" parent="BW3WOsrzkd-29kcLcKj7-5" vertex="1">
          <mxGeometry width="33.92857142857159" height="23" as="geometry">
            <mxRectangle width="33.92857142857159" height="23" as="alternateBounds" />
          </mxGeometry>
        </mxCell>
        <mxCell id="BW3WOsrzkd-29kcLcKj7-7" value="person_name char(50) NOT NULL" style="shape=partialRectangle;overflow=hidden;connectable=0;fillColor=none;top=0;left=0;bottom=0;right=0;align=left;spacingLeft=6;" parent="BW3WOsrzkd-29kcLcKj7-5" vertex="1">
          <mxGeometry x="33.92857142857159" width="216.0714285714284" height="23" as="geometry">
            <mxRectangle width="216.0714285714284" height="23" as="alternateBounds" />
          </mxGeometry>
        </mxCell>
        <mxCell id="BW3WOsrzkd-29kcLcKj7-84" value="" style="shape=partialRectangle;collapsible=0;dropTarget=0;pointerEvents=0;fillColor=none;points=[[0,0.5],[1,0.5]];portConstraint=eastwest;top=0;left=0;right=0;bottom=0;" parent="BW3WOsrzkd-29kcLcKj7-1" vertex="1">
          <mxGeometry y="112" width="250" height="30" as="geometry" />
        </mxCell>
        <mxCell id="BW3WOsrzkd-29kcLcKj7-85" value="" style="shape=partialRectangle;overflow=hidden;connectable=0;fillColor=none;top=0;left=0;bottom=0;right=0;" parent="BW3WOsrzkd-29kcLcKj7-84" vertex="1">
          <mxGeometry width="33.92857142857159" height="30" as="geometry">
            <mxRectangle width="33.92857142857159" height="30" as="alternateBounds" />
          </mxGeometry>
        </mxCell>
        <mxCell id="BW3WOsrzkd-29kcLcKj7-86" value="is_active char(1) NOT NULL" style="shape=partialRectangle;overflow=hidden;connectable=0;fillColor=none;top=0;left=0;bottom=0;right=0;align=left;spacingLeft=6;" parent="BW3WOsrzkd-29kcLcKj7-84" vertex="1">
          <mxGeometry x="33.92857142857159" width="216.0714285714284" height="30" as="geometry">
            <mxRectangle width="216.0714285714284" height="30" as="alternateBounds" />
          </mxGeometry>
        </mxCell>
        <mxCell id="BW3WOsrzkd-29kcLcKj7-8" value="" style="shape=partialRectangle;collapsible=0;dropTarget=0;pointerEvents=0;fillColor=none;points=[[0,0.5],[1,0.5]];portConstraint=eastwest;top=0;left=0;right=0;bottom=0;" parent="BW3WOsrzkd-29kcLcKj7-1" vertex="1">
          <mxGeometry y="142" width="250" height="30" as="geometry" />
        </mxCell>
        <mxCell id="BW3WOsrzkd-29kcLcKj7-9" value="" style="shape=partialRectangle;overflow=hidden;connectable=0;fillColor=none;top=0;left=0;bottom=0;right=0;" parent="BW3WOsrzkd-29kcLcKj7-8" vertex="1">
          <mxGeometry width="33.92857142857159" height="30" as="geometry">
            <mxRectangle width="33.92857142857159" height="30" as="alternateBounds" />
          </mxGeometry>
        </mxCell>
        <mxCell id="BW3WOsrzkd-29kcLcKj7-10" value="date_of_birth date NULL" style="shape=partialRectangle;overflow=hidden;connectable=0;fillColor=none;top=0;left=0;bottom=0;right=0;align=left;spacingLeft=6;" parent="BW3WOsrzkd-29kcLcKj7-8" vertex="1">
          <mxGeometry x="33.92857142857159" width="216.0714285714284" height="30" as="geometry">
            <mxRectangle width="216.0714285714284" height="30" as="alternateBounds" />
          </mxGeometry>
        </mxCell>
        <mxCell id="BW3WOsrzkd-29kcLcKj7-91" value="" style="shape=partialRectangle;collapsible=0;dropTarget=0;pointerEvents=0;fillColor=none;points=[[0,0.5],[1,0.5]];portConstraint=eastwest;top=0;left=0;right=0;bottom=0;" parent="BW3WOsrzkd-29kcLcKj7-1" vertex="1">
          <mxGeometry y="172" width="250" height="30" as="geometry" />
        </mxCell>
        <mxCell id="BW3WOsrzkd-29kcLcKj7-92" value="" style="shape=partialRectangle;overflow=hidden;connectable=0;fillColor=none;top=0;left=0;bottom=0;right=0;" parent="BW3WOsrzkd-29kcLcKj7-91" vertex="1">
          <mxGeometry width="33.92857142857159" height="30" as="geometry">
            <mxRectangle width="33.92857142857159" height="30" as="alternateBounds" />
          </mxGeometry>
        </mxCell>
        <mxCell id="BW3WOsrzkd-29kcLcKj7-93" value="emergency_contact intÂ  NULL" style="shape=partialRectangle;overflow=hidden;connectable=0;fillColor=none;top=0;left=0;bottom=0;right=0;align=left;spacingLeft=6;" parent="BW3WOsrzkd-29kcLcKj7-91" vertex="1">
          <mxGeometry x="33.92857142857159" width="216.0714285714284" height="30" as="geometry">
            <mxRectangle width="216.0714285714284" height="30" as="alternateBounds" />
          </mxGeometry>
        </mxCell>
        <mxCell id="BW3WOsrzkd-29kcLcKj7-87" value="" style="shape=partialRectangle;collapsible=0;dropTarget=0;pointerEvents=0;fillColor=none;points=[[0,0.5],[1,0.5]];portConstraint=eastwest;top=0;left=0;right=0;bottom=0;" parent="BW3WOsrzkd-29kcLcKj7-1" vertex="1">
          <mxGeometry y="202" width="250" height="30" as="geometry" />
        </mxCell>
        <mxCell id="BW3WOsrzkd-29kcLcKj7-88" value="" style="shape=partialRectangle;overflow=hidden;connectable=0;fillColor=none;top=0;left=0;bottom=0;right=0;" parent="BW3WOsrzkd-29kcLcKj7-87" vertex="1">
          <mxGeometry width="33.92857142857159" height="30" as="geometry">
            <mxRectangle width="33.92857142857159" height="30" as="alternateBounds" />
          </mxGeometry>
        </mxCell>
        <mxCell id="BW3WOsrzkd-29kcLcKj7-89" value="phone_number char(20) NULL" style="shape=partialRectangle;overflow=hidden;connectable=0;fillColor=none;top=0;left=0;bottom=0;right=0;align=left;spacingLeft=6;" parent="BW3WOsrzkd-29kcLcKj7-87" vertex="1">
          <mxGeometry x="33.92857142857159" width="216.0714285714284" height="30" as="geometry">
            <mxRectangle width="216.0714285714284" height="30" as="alternateBounds" />
          </mxGeometry>
        </mxCell>
        <mxCell id="BW3WOsrzkd-29kcLcKj7-227" value="" style="shape=partialRectangle;collapsible=0;dropTarget=0;pointerEvents=0;fillColor=none;points=[[0,0.5],[1,0.5]];portConstraint=eastwest;top=0;left=0;right=0;bottom=0;" parent="BW3WOsrzkd-29kcLcKj7-1" vertex="1">
          <mxGeometry y="232" width="250" height="30" as="geometry" />
        </mxCell>
        <mxCell id="BW3WOsrzkd-29kcLcKj7-228" value="" style="shape=partialRectangle;overflow=hidden;connectable=0;fillColor=none;top=0;left=0;bottom=0;right=0;" parent="BW3WOsrzkd-29kcLcKj7-227" vertex="1">
          <mxGeometry width="33.92857142857159" height="30" as="geometry">
            <mxRectangle width="33.92857142857159" height="30" as="alternateBounds" />
          </mxGeometry>
        </mxCell>
        <mxCell id="BW3WOsrzkd-29kcLcKj7-229" value="pictureÂ  blob NULL" style="shape=partialRectangle;overflow=hidden;connectable=0;fillColor=none;top=0;left=0;bottom=0;right=0;align=left;spacingLeft=6;" parent="BW3WOsrzkd-29kcLcKj7-227" vertex="1">
          <mxGeometry x="33.92857142857159" width="216.0714285714284" height="30" as="geometry">
            <mxRectangle width="216.0714285714284" height="30" as="alternateBounds" />
          </mxGeometry>
        </mxCell>
        <mxCell id="BW3WOsrzkd-29kcLcKj7-90" value="" style="edgeStyle=entityRelationEdgeStyle;endArrow=ERone;startArrow=ERone;endFill=1;startFill=0;fillColor=#dae8fc;strokeColor=#6c8ebf;" parent="BW3WOsrzkd-29kcLcKj7-1" source="BW3WOsrzkd-29kcLcKj7-91" target="BW3WOsrzkd-29kcLcKj7-2" edge="1">
          <mxGeometry width="100" height="100" relative="1" as="geometry">
            <mxPoint x="103" y="198" as="sourcePoint" />
            <mxPoint x="262" y="41" as="targetPoint" />
            <Array as="points">
              <mxPoint x="4" y="124" />
              <mxPoint x="476" y="110" />
              <mxPoint x="-76" y="13" />
              <mxPoint x="-4" y="134" />
            </Array>
          </mxGeometry>
        </mxCell>
        <mxCell id="BW3WOsrzkd-29kcLcKj7-12" value="" style="edgeStyle=entityRelationEdgeStyle;endArrow=ERoneToMany;startArrow=ERone;endFill=1;startFill=1;exitX=0;exitY=0.5;exitDx=0;exitDy=0;entryX=1;entryY=0.5;entryDx=0;entryDy=0;fillColor=#f8cecc;strokeColor=#b85450;" parent="1" source="C-vyLk0tnHw3VtMMgP7b-14" target="BW3WOsrzkd-29kcLcKj7-36" edge="1">
          <mxGeometry width="100" height="100" relative="1" as="geometry">
            <mxPoint x="447" y="380" as="sourcePoint" />
            <mxPoint x="387" y="676" as="targetPoint" />
            <Array as="points">
              <mxPoint x="495" y="519" />
              <mxPoint x="415" y="408" />
              <mxPoint x="360" y="661" />
              <mxPoint x="487" y="529" />
            </Array>
          </mxGeometry>
        </mxCell>
        <mxCell id="BW3WOsrzkd-29kcLcKj7-15" value="Team" style="shape=table;startSize=30;container=1;collapsible=1;childLayout=tableLayout;fixedRows=1;rowLines=0;fontStyle=1;align=center;resizeLast=1;" parent="1" vertex="1">
          <mxGeometry x="108" y="308" width="250" height="190" as="geometry" />
        </mxCell>
        <mxCell id="BW3WOsrzkd-29kcLcKj7-16" value="" style="shape=partialRectangle;collapsible=0;dropTarget=0;pointerEvents=0;fillColor=none;points=[[0,0.5],[1,0.5]];portConstraint=eastwest;top=0;left=0;right=0;bottom=1;" parent="BW3WOsrzkd-29kcLcKj7-15" vertex="1">
          <mxGeometry y="30" width="250" height="30" as="geometry" />
        </mxCell>
        <mxCell id="BW3WOsrzkd-29kcLcKj7-17" value="PK" style="shape=partialRectangle;overflow=hidden;connectable=0;fillColor=none;top=0;left=0;bottom=0;right=0;fontStyle=1;" parent="BW3WOsrzkd-29kcLcKj7-16" vertex="1">
          <mxGeometry width="30" height="30" as="geometry">
            <mxRectangle width="30" height="30" as="alternateBounds" />
          </mxGeometry>
        </mxCell>
        <mxCell id="BW3WOsrzkd-29kcLcKj7-18" value="team_idÂ int NOT NULL " style="shape=partialRectangle;overflow=hidden;connectable=0;fillColor=none;top=0;left=0;bottom=0;right=0;align=left;spacingLeft=6;fontStyle=5;" parent="BW3WOsrzkd-29kcLcKj7-16" vertex="1">
          <mxGeometry x="30" width="220" height="30" as="geometry">
            <mxRectangle width="220" height="30" as="alternateBounds" />
          </mxGeometry>
        </mxCell>
        <mxCell id="BW3WOsrzkd-29kcLcKj7-19" value="" style="shape=partialRectangle;collapsible=0;dropTarget=0;pointerEvents=0;fillColor=none;points=[[0,0.5],[1,0.5]];portConstraint=eastwest;top=0;left=0;right=0;bottom=0;" parent="BW3WOsrzkd-29kcLcKj7-15" vertex="1">
          <mxGeometry y="60" width="250" height="30" as="geometry" />
        </mxCell>
        <mxCell id="BW3WOsrzkd-29kcLcKj7-20" value="FK4" style="shape=partialRectangle;overflow=hidden;connectable=0;fillColor=none;top=0;left=0;bottom=0;right=0;" parent="BW3WOsrzkd-29kcLcKj7-19" vertex="1">
          <mxGeometry width="30" height="30" as="geometry">
            <mxRectangle width="30" height="30" as="alternateBounds" />
          </mxGeometry>
        </mxCell>
        <mxCell id="BW3WOsrzkd-29kcLcKj7-21" value="cell_id int NOT NULL" style="shape=partialRectangle;overflow=hidden;connectable=0;fillColor=none;top=0;left=0;bottom=0;right=0;align=left;spacingLeft=6;" parent="BW3WOsrzkd-29kcLcKj7-19" vertex="1">
          <mxGeometry x="30" width="220" height="30" as="geometry">
            <mxRectangle width="220" height="30" as="alternateBounds" />
          </mxGeometry>
        </mxCell>
        <mxCell id="BW3WOsrzkd-29kcLcKj7-33" value="" style="shape=partialRectangle;collapsible=0;dropTarget=0;pointerEvents=0;fillColor=none;points=[[0,0.5],[1,0.5]];portConstraint=eastwest;top=0;left=0;right=0;bottom=0;" parent="BW3WOsrzkd-29kcLcKj7-15" vertex="1">
          <mxGeometry y="90" width="250" height="30" as="geometry" />
        </mxCell>
        <mxCell id="BW3WOsrzkd-29kcLcKj7-34" value="" style="shape=partialRectangle;overflow=hidden;connectable=0;fillColor=none;top=0;left=0;bottom=0;right=0;" parent="BW3WOsrzkd-29kcLcKj7-33" vertex="1">
          <mxGeometry width="30" height="30" as="geometry">
            <mxRectangle width="30" height="30" as="alternateBounds" />
          </mxGeometry>
        </mxCell>
        <mxCell id="BW3WOsrzkd-29kcLcKj7-35" value="is_active char(1) NOT NULL" style="shape=partialRectangle;overflow=hidden;connectable=0;fillColor=none;top=0;left=0;bottom=0;right=0;align=left;spacingLeft=6;" parent="BW3WOsrzkd-29kcLcKj7-33" vertex="1">
          <mxGeometry x="30" width="220" height="30" as="geometry">
            <mxRectangle width="220" height="30" as="alternateBounds" />
          </mxGeometry>
        </mxCell>
        <mxCell id="BW3WOsrzkd-29kcLcKj7-67" value="" style="shape=partialRectangle;collapsible=0;dropTarget=0;pointerEvents=0;fillColor=none;points=[[0,0.5],[1,0.5]];portConstraint=eastwest;top=0;left=0;right=0;bottom=0;" parent="BW3WOsrzkd-29kcLcKj7-15" vertex="1">
          <mxGeometry y="120" width="250" height="30" as="geometry" />
        </mxCell>
        <mxCell id="BW3WOsrzkd-29kcLcKj7-68" value="" style="shape=partialRectangle;overflow=hidden;connectable=0;fillColor=none;top=0;left=0;bottom=0;right=0;" parent="BW3WOsrzkd-29kcLcKj7-67" vertex="1">
          <mxGeometry width="30" height="30" as="geometry">
            <mxRectangle width="30" height="30" as="alternateBounds" />
          </mxGeometry>
        </mxCell>
        <mxCell id="BW3WOsrzkd-29kcLcKj7-69" value="team_name char(50) NOT NULL" style="shape=partialRectangle;overflow=hidden;connectable=0;fillColor=none;top=0;left=0;bottom=0;right=0;align=left;spacingLeft=6;" parent="BW3WOsrzkd-29kcLcKj7-67" vertex="1">
          <mxGeometry x="30" width="220" height="30" as="geometry">
            <mxRectangle width="220" height="30" as="alternateBounds" />
          </mxGeometry>
        </mxCell>
        <mxCell id="BW3WOsrzkd-29kcLcKj7-22" value="" style="shape=partialRectangle;collapsible=0;dropTarget=0;pointerEvents=0;fillColor=none;points=[[0,0.5],[1,0.5]];portConstraint=eastwest;top=0;left=0;right=0;bottom=0;" parent="BW3WOsrzkd-29kcLcKj7-15" vertex="1">
          <mxGeometry y="150" width="250" height="30" as="geometry" />
        </mxCell>
        <mxCell id="BW3WOsrzkd-29kcLcKj7-23" value="" style="shape=partialRectangle;overflow=hidden;connectable=0;fillColor=none;top=0;left=0;bottom=0;right=0;" parent="BW3WOsrzkd-29kcLcKj7-22" vertex="1">
          <mxGeometry width="30" height="30" as="geometry">
            <mxRectangle width="30" height="30" as="alternateBounds" />
          </mxGeometry>
        </mxCell>
        <mxCell id="BW3WOsrzkd-29kcLcKj7-24" value="description char(500) NOT NULL" style="shape=partialRectangle;overflow=hidden;connectable=0;fillColor=none;top=0;left=0;bottom=0;right=0;align=left;spacingLeft=6;" parent="BW3WOsrzkd-29kcLcKj7-22" vertex="1">
          <mxGeometry x="30" width="220" height="30" as="geometry">
            <mxRectangle width="220" height="30" as="alternateBounds" />
          </mxGeometry>
        </mxCell>
        <mxCell id="BW3WOsrzkd-29kcLcKj7-50" value="" style="edgeStyle=entityRelationEdgeStyle;endArrow=ERoneToMany;startArrow=ERone;endFill=1;startFill=1;" parent="1" source="C-vyLk0tnHw3VtMMgP7b-14" target="BW3WOsrzkd-29kcLcKj7-19" edge="1">
          <mxGeometry width="100" height="100" relative="1" as="geometry">
            <mxPoint x="269" y="250" as="sourcePoint" />
            <mxPoint x="188" y="418" as="targetPoint" />
            <Array as="points">
              <mxPoint x="317" y="389" />
              <mxPoint x="237" y="278" />
              <mxPoint x="309" y="399" />
            </Array>
          </mxGeometry>
        </mxCell>
        <mxCell id="BW3WOsrzkd-29kcLcKj7-51" value="Team_Person" style="shape=table;startSize=30;container=1;collapsible=1;childLayout=tableLayout;fixedRows=1;rowLines=0;fontStyle=1;align=center;resizeLast=1;" parent="1" vertex="1">
          <mxGeometry x="-288" y="605" width="250" height="90.07" as="geometry" />
        </mxCell>
        <mxCell id="BW3WOsrzkd-29kcLcKj7-71" value="" style="shape=partialRectangle;collapsible=0;dropTarget=0;pointerEvents=0;fillColor=none;points=[[0,0.5],[1,0.5]];portConstraint=eastwest;top=0;left=0;right=0;bottom=1;" parent="BW3WOsrzkd-29kcLcKj7-51" vertex="1">
          <mxGeometry y="30" width="250" height="30" as="geometry" />
        </mxCell>
        <mxCell id="BW3WOsrzkd-29kcLcKj7-72" value="FK6" style="shape=partialRectangle;overflow=hidden;connectable=0;fillColor=none;top=0;left=0;bottom=0;right=0;fontStyle=1;" parent="BW3WOsrzkd-29kcLcKj7-71" vertex="1">
          <mxGeometry width="33.92857142857159" height="30" as="geometry">
            <mxRectangle width="33.92857142857159" height="30" as="alternateBounds" />
          </mxGeometry>
        </mxCell>
        <mxCell id="BW3WOsrzkd-29kcLcKj7-73" value="team_idÂ int NOT NULL " style="shape=partialRectangle;overflow=hidden;connectable=0;fillColor=none;top=0;left=0;bottom=0;right=0;align=left;spacingLeft=6;fontStyle=5;" parent="BW3WOsrzkd-29kcLcKj7-71" vertex="1">
          <mxGeometry x="33.92857142857159" width="216.0714285714284" height="30" as="geometry">
            <mxRectangle width="216.0714285714284" height="30" as="alternateBounds" />
          </mxGeometry>
        </mxCell>
        <mxCell id="BW3WOsrzkd-29kcLcKj7-52" value="" style="shape=partialRectangle;collapsible=0;dropTarget=0;pointerEvents=0;fillColor=none;points=[[0,0.5],[1,0.5]];portConstraint=eastwest;top=0;left=0;right=0;bottom=1;" parent="BW3WOsrzkd-29kcLcKj7-51" vertex="1">
          <mxGeometry y="60" width="250" height="30" as="geometry" />
        </mxCell>
        <mxCell id="BW3WOsrzkd-29kcLcKj7-53" value="FK7" style="shape=partialRectangle;overflow=hidden;connectable=0;fillColor=none;top=0;left=0;bottom=0;right=0;fontStyle=1;" parent="BW3WOsrzkd-29kcLcKj7-52" vertex="1">
          <mxGeometry width="33.92857142857159" height="30" as="geometry">
            <mxRectangle width="33.92857142857159" height="30" as="alternateBounds" />
          </mxGeometry>
        </mxCell>
        <mxCell id="BW3WOsrzkd-29kcLcKj7-54" value="person_idÂ int NOT NULL " style="shape=partialRectangle;overflow=hidden;connectable=0;fillColor=none;top=0;left=0;bottom=0;right=0;align=left;spacingLeft=6;fontStyle=5;" parent="BW3WOsrzkd-29kcLcKj7-52" vertex="1">
          <mxGeometry x="33.92857142857159" width="216.0714285714284" height="30" as="geometry">
            <mxRectangle width="216.0714285714284" height="30" as="alternateBounds" />
          </mxGeometry>
        </mxCell>
        <mxCell id="BW3WOsrzkd-29kcLcKj7-75" value="" style="edgeStyle=entityRelationEdgeStyle;endArrow=ERoneToMany;startArrow=ERone;endFill=1;startFill=1;entryX=1;entryY=0.5;entryDx=0;entryDy=0;exitX=0;exitY=0.5;exitDx=0;exitDy=0;fillColor=#dae8fc;strokeColor=#6c8ebf;" parent="1" source="BW3WOsrzkd-29kcLcKj7-2" target="BW3WOsrzkd-29kcLcKj7-52" edge="1">
          <mxGeometry width="100" height="100" relative="1" as="geometry">
            <mxPoint x="-27" y="546" as="sourcePoint" />
            <mxPoint x="-108" y="714" as="targetPoint" />
            <Array as="points">
              <mxPoint x="21" y="685" />
              <mxPoint x="-59" y="574" />
              <mxPoint x="13" y="695" />
            </Array>
          </mxGeometry>
        </mxCell>
        <mxCell id="BW3WOsrzkd-29kcLcKj7-83" value="" style="edgeStyle=entityRelationEdgeStyle;endArrow=ERoneToMany;startArrow=ERone;endFill=1;startFill=1;exitX=0;exitY=0.5;exitDx=0;exitDy=0;entryX=1;entryY=0.5;entryDx=0;entryDy=0;fillColor=#dae8fc;strokeColor=#6c8ebf;" parent="1" source="BW3WOsrzkd-29kcLcKj7-16" target="BW3WOsrzkd-29kcLcKj7-71" edge="1">
          <mxGeometry width="100" height="100" relative="1" as="geometry">
            <mxPoint x="140" y="637" as="sourcePoint" />
            <mxPoint x="-147" y="312" as="targetPoint" />
            <Array as="points">
              <mxPoint x="31" y="695" />
              <mxPoint x="-49" y="584" />
              <mxPoint x="23" y="705" />
            </Array>
          </mxGeometry>
        </mxCell>
        <mxCell id="BW3WOsrzkd-29kcLcKj7-94" value="Task" style="shape=table;startSize=30;container=1;collapsible=1;childLayout=tableLayout;fixedRows=1;rowLines=0;fontStyle=1;align=center;resizeLast=1;" parent="1" vertex="1">
          <mxGeometry x="-288" y="358" width="250" height="160" as="geometry" />
        </mxCell>
        <mxCell id="BW3WOsrzkd-29kcLcKj7-95" value="" style="shape=partialRectangle;collapsible=0;dropTarget=0;pointerEvents=0;fillColor=none;points=[[0,0.5],[1,0.5]];portConstraint=eastwest;top=0;left=0;right=0;bottom=1;" parent="BW3WOsrzkd-29kcLcKj7-94" vertex="1">
          <mxGeometry y="30" width="250" height="30" as="geometry" />
        </mxCell>
        <mxCell id="BW3WOsrzkd-29kcLcKj7-96" value="PK" style="shape=partialRectangle;overflow=hidden;connectable=0;fillColor=none;top=0;left=0;bottom=0;right=0;fontStyle=1;" parent="BW3WOsrzkd-29kcLcKj7-95" vertex="1">
          <mxGeometry width="30" height="30" as="geometry">
            <mxRectangle width="30" height="30" as="alternateBounds" />
          </mxGeometry>
        </mxCell>
        <mxCell id="BW3WOsrzkd-29kcLcKj7-97" value="task_id int NOT NULL " style="shape=partialRectangle;overflow=hidden;connectable=0;fillColor=none;top=0;left=0;bottom=0;right=0;align=left;spacingLeft=6;fontStyle=5;" parent="BW3WOsrzkd-29kcLcKj7-95" vertex="1">
          <mxGeometry x="30" width="220" height="30" as="geometry">
            <mxRectangle width="220" height="30" as="alternateBounds" />
          </mxGeometry>
        </mxCell>
        <mxCell id="BW3WOsrzkd-29kcLcKj7-98" value="" style="shape=partialRectangle;collapsible=0;dropTarget=0;pointerEvents=0;fillColor=none;points=[[0,0.5],[1,0.5]];portConstraint=eastwest;top=0;left=0;right=0;bottom=0;" parent="BW3WOsrzkd-29kcLcKj7-94" vertex="1">
          <mxGeometry y="60" width="250" height="30" as="geometry" />
        </mxCell>
        <mxCell id="BW3WOsrzkd-29kcLcKj7-99" value="FK5" style="shape=partialRectangle;overflow=hidden;connectable=0;fillColor=none;top=0;left=0;bottom=0;right=0;" parent="BW3WOsrzkd-29kcLcKj7-98" vertex="1">
          <mxGeometry width="30" height="30" as="geometry">
            <mxRectangle width="30" height="30" as="alternateBounds" />
          </mxGeometry>
        </mxCell>
        <mxCell id="BW3WOsrzkd-29kcLcKj7-100" value="team_id int NOT NULL" style="shape=partialRectangle;overflow=hidden;connectable=0;fillColor=none;top=0;left=0;bottom=0;right=0;align=left;spacingLeft=6;" parent="BW3WOsrzkd-29kcLcKj7-98" vertex="1">
          <mxGeometry x="30" width="220" height="30" as="geometry">
            <mxRectangle width="220" height="30" as="alternateBounds" />
          </mxGeometry>
        </mxCell>
        <mxCell id="BW3WOsrzkd-29kcLcKj7-104" value="" style="shape=partialRectangle;collapsible=0;dropTarget=0;pointerEvents=0;fillColor=none;points=[[0,0.5],[1,0.5]];portConstraint=eastwest;top=0;left=0;right=0;bottom=0;" parent="BW3WOsrzkd-29kcLcKj7-94" vertex="1">
          <mxGeometry y="90" width="250" height="30" as="geometry" />
        </mxCell>
        <mxCell id="BW3WOsrzkd-29kcLcKj7-105" value="" style="shape=partialRectangle;overflow=hidden;connectable=0;fillColor=none;top=0;left=0;bottom=0;right=0;" parent="BW3WOsrzkd-29kcLcKj7-104" vertex="1">
          <mxGeometry width="30" height="30" as="geometry">
            <mxRectangle width="30" height="30" as="alternateBounds" />
          </mxGeometry>
        </mxCell>
        <mxCell id="BW3WOsrzkd-29kcLcKj7-106" value="is_active char(1) NOT NULL" style="shape=partialRectangle;overflow=hidden;connectable=0;fillColor=none;top=0;left=0;bottom=0;right=0;align=left;spacingLeft=6;" parent="BW3WOsrzkd-29kcLcKj7-104" vertex="1">
          <mxGeometry x="30" width="220" height="30" as="geometry">
            <mxRectangle width="220" height="30" as="alternateBounds" />
          </mxGeometry>
        </mxCell>
        <mxCell id="BW3WOsrzkd-29kcLcKj7-101" value="" style="shape=partialRectangle;collapsible=0;dropTarget=0;pointerEvents=0;fillColor=none;points=[[0,0.5],[1,0.5]];portConstraint=eastwest;top=0;left=0;right=0;bottom=0;" parent="BW3WOsrzkd-29kcLcKj7-94" vertex="1">
          <mxGeometry y="120" width="250" height="30" as="geometry" />
        </mxCell>
        <mxCell id="BW3WOsrzkd-29kcLcKj7-102" value="" style="shape=partialRectangle;overflow=hidden;connectable=0;fillColor=none;top=0;left=0;bottom=0;right=0;" parent="BW3WOsrzkd-29kcLcKj7-101" vertex="1">
          <mxGeometry width="30" height="30" as="geometry">
            <mxRectangle width="30" height="30" as="alternateBounds" />
          </mxGeometry>
        </mxCell>
        <mxCell id="BW3WOsrzkd-29kcLcKj7-103" value="description char(1000) NOT NULL" style="shape=partialRectangle;overflow=hidden;connectable=0;fillColor=none;top=0;left=0;bottom=0;right=0;align=left;spacingLeft=6;" parent="BW3WOsrzkd-29kcLcKj7-101" vertex="1">
          <mxGeometry x="30" width="220" height="30" as="geometry">
            <mxRectangle width="220" height="30" as="alternateBounds" />
          </mxGeometry>
        </mxCell>
        <mxCell id="BW3WOsrzkd-29kcLcKj7-107" value="" style="edgeStyle=entityRelationEdgeStyle;endArrow=ERoneToMany;startArrow=ERone;endFill=1;startFill=1;exitX=0;exitY=0.5;exitDx=0;exitDy=0;fillColor=#dae8fc;strokeColor=#6c8ebf;" parent="1" source="BW3WOsrzkd-29kcLcKj7-16" target="BW3WOsrzkd-29kcLcKj7-98" edge="1">
          <mxGeometry width="100" height="100" relative="1" as="geometry">
            <mxPoint x="118" y="363" as="sourcePoint" />
            <mxPoint x="48" y="553" as="targetPoint" />
            <Array as="points">
              <mxPoint x="41" y="705" />
              <mxPoint x="-39" y="594" />
              <mxPoint x="33" y="715" />
            </Array>
          </mxGeometry>
        </mxCell>
        <mxCell id="BW3WOsrzkd-29kcLcKj7-125" value="Advertisement" style="shape=table;startSize=30;container=1;collapsible=1;childLayout=tableLayout;fixedRows=1;rowLines=0;fontStyle=1;align=center;resizeLast=1;" parent="1" vertex="1">
          <mxGeometry x="844" y="126" width="250" height="250" as="geometry" />
        </mxCell>
        <mxCell id="BW3WOsrzkd-29kcLcKj7-126" value="" style="shape=partialRectangle;collapsible=0;dropTarget=0;pointerEvents=0;fillColor=none;points=[[0,0.5],[1,0.5]];portConstraint=eastwest;top=0;left=0;right=0;bottom=1;" parent="BW3WOsrzkd-29kcLcKj7-125" vertex="1">
          <mxGeometry y="30" width="250" height="30" as="geometry" />
        </mxCell>
        <mxCell id="BW3WOsrzkd-29kcLcKj7-127" value="PK" style="shape=partialRectangle;overflow=hidden;connectable=0;fillColor=none;top=0;left=0;bottom=0;right=0;fontStyle=1;" parent="BW3WOsrzkd-29kcLcKj7-126" vertex="1">
          <mxGeometry width="30" height="30" as="geometry">
            <mxRectangle width="30" height="30" as="alternateBounds" />
          </mxGeometry>
        </mxCell>
        <mxCell id="BW3WOsrzkd-29kcLcKj7-128" value="ad_id int NOT NULL " style="shape=partialRectangle;overflow=hidden;connectable=0;fillColor=none;top=0;left=0;bottom=0;right=0;align=left;spacingLeft=6;fontStyle=5;" parent="BW3WOsrzkd-29kcLcKj7-126" vertex="1">
          <mxGeometry x="30" width="220" height="30" as="geometry">
            <mxRectangle width="220" height="30" as="alternateBounds" />
          </mxGeometry>
        </mxCell>
        <mxCell id="BW3WOsrzkd-29kcLcKj7-129" value="" style="shape=partialRectangle;collapsible=0;dropTarget=0;pointerEvents=0;fillColor=none;points=[[0,0.5],[1,0.5]];portConstraint=eastwest;top=0;left=0;right=0;bottom=0;" parent="BW3WOsrzkd-29kcLcKj7-125" vertex="1">
          <mxGeometry y="60" width="250" height="30" as="geometry" />
        </mxCell>
        <mxCell id="BW3WOsrzkd-29kcLcKj7-130" value="FK13" style="shape=partialRectangle;overflow=hidden;connectable=0;fillColor=none;top=0;left=0;bottom=0;right=0;" parent="BW3WOsrzkd-29kcLcKj7-129" vertex="1">
          <mxGeometry width="30" height="30" as="geometry">
            <mxRectangle width="30" height="30" as="alternateBounds" />
          </mxGeometry>
        </mxCell>
        <mxCell id="BW3WOsrzkd-29kcLcKj7-131" value="cell_id int NOT NULL" style="shape=partialRectangle;overflow=hidden;connectable=0;fillColor=none;top=0;left=0;bottom=0;right=0;align=left;spacingLeft=6;" parent="BW3WOsrzkd-29kcLcKj7-129" vertex="1">
          <mxGeometry x="30" width="220" height="30" as="geometry">
            <mxRectangle width="220" height="30" as="alternateBounds" />
          </mxGeometry>
        </mxCell>
        <mxCell id="BW3WOsrzkd-29kcLcKj7-139" value="" style="shape=partialRectangle;collapsible=0;dropTarget=0;pointerEvents=0;fillColor=none;points=[[0,0.5],[1,0.5]];portConstraint=eastwest;top=0;left=0;right=0;bottom=0;" parent="BW3WOsrzkd-29kcLcKj7-125" vertex="1">
          <mxGeometry y="90" width="250" height="30" as="geometry" />
        </mxCell>
        <mxCell id="BW3WOsrzkd-29kcLcKj7-140" value="" style="shape=partialRectangle;overflow=hidden;connectable=0;fillColor=none;top=0;left=0;bottom=0;right=0;" parent="BW3WOsrzkd-29kcLcKj7-139" vertex="1">
          <mxGeometry width="30" height="30" as="geometry">
            <mxRectangle width="30" height="30" as="alternateBounds" />
          </mxGeometry>
        </mxCell>
        <mxCell id="BW3WOsrzkd-29kcLcKj7-141" value="is_active char(1) NOT NULL" style="shape=partialRectangle;overflow=hidden;connectable=0;fillColor=none;top=0;left=0;bottom=0;right=0;align=left;spacingLeft=6;" parent="BW3WOsrzkd-29kcLcKj7-139" vertex="1">
          <mxGeometry x="30" width="220" height="30" as="geometry">
            <mxRectangle width="220" height="30" as="alternateBounds" />
          </mxGeometry>
        </mxCell>
        <mxCell id="BW3WOsrzkd-29kcLcKj7-132" value="" style="shape=partialRectangle;collapsible=0;dropTarget=0;pointerEvents=0;fillColor=none;points=[[0,0.5],[1,0.5]];portConstraint=eastwest;top=0;left=0;right=0;bottom=0;" parent="BW3WOsrzkd-29kcLcKj7-125" vertex="1">
          <mxGeometry y="120" width="250" height="30" as="geometry" />
        </mxCell>
        <mxCell id="BW3WOsrzkd-29kcLcKj7-133" value="" style="shape=partialRectangle;overflow=hidden;connectable=0;fillColor=none;top=0;left=0;bottom=0;right=0;" parent="BW3WOsrzkd-29kcLcKj7-132" vertex="1">
          <mxGeometry width="30" height="30" as="geometry">
            <mxRectangle width="30" height="30" as="alternateBounds" />
          </mxGeometry>
        </mxCell>
        <mxCell id="BW3WOsrzkd-29kcLcKj7-134" value="ad_description char(5000) NULL" style="shape=partialRectangle;overflow=hidden;connectable=0;fillColor=none;top=0;left=0;bottom=0;right=0;align=left;spacingLeft=6;" parent="BW3WOsrzkd-29kcLcKj7-132" vertex="1">
          <mxGeometry x="30" width="220" height="30" as="geometry">
            <mxRectangle width="220" height="30" as="alternateBounds" />
          </mxGeometry>
        </mxCell>
        <mxCell id="BW3WOsrzkd-29kcLcKj7-135" value="" style="shape=partialRectangle;collapsible=0;dropTarget=0;pointerEvents=0;fillColor=none;points=[[0,0.5],[1,0.5]];portConstraint=eastwest;top=0;left=0;right=0;bottom=0;" parent="BW3WOsrzkd-29kcLcKj7-125" vertex="1">
          <mxGeometry y="150" width="250" height="30" as="geometry" />
        </mxCell>
        <mxCell id="BW3WOsrzkd-29kcLcKj7-136" value="" style="shape=partialRectangle;overflow=hidden;connectable=0;fillColor=none;top=0;left=0;bottom=0;right=0;" parent="BW3WOsrzkd-29kcLcKj7-135" vertex="1">
          <mxGeometry width="30" height="30" as="geometry">
            <mxRectangle width="30" height="30" as="alternateBounds" />
          </mxGeometry>
        </mxCell>
        <mxCell id="BW3WOsrzkd-29kcLcKj7-137" value="publish_date date NOT NULL" style="shape=partialRectangle;overflow=hidden;connectable=0;fillColor=none;top=0;left=0;bottom=0;right=0;align=left;spacingLeft=6;" parent="BW3WOsrzkd-29kcLcKj7-135" vertex="1">
          <mxGeometry x="30" width="220" height="30" as="geometry">
            <mxRectangle width="220" height="30" as="alternateBounds" />
          </mxGeometry>
        </mxCell>
        <mxCell id="BW3WOsrzkd-29kcLcKj7-249" value="" style="shape=partialRectangle;collapsible=0;dropTarget=0;pointerEvents=0;fillColor=none;points=[[0,0.5],[1,0.5]];portConstraint=eastwest;top=0;left=0;right=0;bottom=0;" parent="BW3WOsrzkd-29kcLcKj7-125" vertex="1">
          <mxGeometry y="180" width="250" height="30" as="geometry" />
        </mxCell>
        <mxCell id="BW3WOsrzkd-29kcLcKj7-250" value="" style="shape=partialRectangle;overflow=hidden;connectable=0;fillColor=none;top=0;left=0;bottom=0;right=0;" parent="BW3WOsrzkd-29kcLcKj7-249" vertex="1">
          <mxGeometry width="30" height="30" as="geometry">
            <mxRectangle width="30" height="30" as="alternateBounds" />
          </mxGeometry>
        </mxCell>
        <mxCell id="BW3WOsrzkd-29kcLcKj7-251" value="due_date date NOT NULL" style="shape=partialRectangle;overflow=hidden;connectable=0;fillColor=none;top=0;left=0;bottom=0;right=0;align=left;spacingLeft=6;" parent="BW3WOsrzkd-29kcLcKj7-249" vertex="1">
          <mxGeometry x="30" width="220" height="30" as="geometry">
            <mxRectangle width="220" height="30" as="alternateBounds" />
          </mxGeometry>
        </mxCell>
        <mxCell id="BW3WOsrzkd-29kcLcKj7-242" value="" style="shape=partialRectangle;collapsible=0;dropTarget=0;pointerEvents=0;fillColor=none;points=[[0,0.5],[1,0.5]];portConstraint=eastwest;top=0;left=0;right=0;bottom=0;" parent="BW3WOsrzkd-29kcLcKj7-125" vertex="1">
          <mxGeometry y="210" width="250" height="30" as="geometry" />
        </mxCell>
        <mxCell id="BW3WOsrzkd-29kcLcKj7-243" value="" style="shape=partialRectangle;overflow=hidden;connectable=0;fillColor=none;top=0;left=0;bottom=0;right=0;" parent="BW3WOsrzkd-29kcLcKj7-242" vertex="1">
          <mxGeometry width="30" height="30" as="geometry">
            <mxRectangle width="30" height="30" as="alternateBounds" />
          </mxGeometry>
        </mxCell>
        <mxCell id="BW3WOsrzkd-29kcLcKj7-244" value="banner blob NULL" style="shape=partialRectangle;overflow=hidden;connectable=0;fillColor=none;top=0;left=0;bottom=0;right=0;align=left;spacingLeft=6;" parent="BW3WOsrzkd-29kcLcKj7-242" vertex="1">
          <mxGeometry x="30" width="220" height="30" as="geometry">
            <mxRectangle width="220" height="30" as="alternateBounds" />
          </mxGeometry>
        </mxCell>
        <mxCell id="BW3WOsrzkd-29kcLcKj7-138" value="" style="edgeStyle=entityRelationEdgeStyle;endArrow=ERoneToMany;startArrow=ERone;endFill=1;startFill=1;exitX=1;exitY=0.5;exitDx=0;exitDy=0;fillColor=#f8cecc;strokeColor=#b85450;" parent="1" source="C-vyLk0tnHw3VtMMgP7b-14" target="BW3WOsrzkd-29kcLcKj7-126" edge="1">
          <mxGeometry width="100" height="100" relative="1" as="geometry">
            <mxPoint x="847" y="438" as="sourcePoint" />
            <mxPoint x="765" y="431" as="targetPoint" />
            <Array as="points">
              <mxPoint x="724" y="467" />
              <mxPoint x="644" y="356" />
              <mxPoint x="716" y="477" />
            </Array>
          </mxGeometry>
        </mxCell>
        <mxCell id="BW3WOsrzkd-29kcLcKj7-150" value="Social" style="shape=table;startSize=30;container=1;collapsible=1;childLayout=tableLayout;fixedRows=1;rowLines=0;fontStyle=1;align=center;resizeLast=1;" parent="1" vertex="1">
          <mxGeometry x="948" y="508" width="250" height="220" as="geometry" />
        </mxCell>
        <mxCell id="BW3WOsrzkd-29kcLcKj7-151" value="" style="shape=partialRectangle;collapsible=0;dropTarget=0;pointerEvents=0;fillColor=none;points=[[0,0.5],[1,0.5]];portConstraint=eastwest;top=0;left=0;right=0;bottom=1;" parent="BW3WOsrzkd-29kcLcKj7-150" vertex="1">
          <mxGeometry y="30" width="250" height="30" as="geometry" />
        </mxCell>
        <mxCell id="BW3WOsrzkd-29kcLcKj7-152" value="PK" style="shape=partialRectangle;overflow=hidden;connectable=0;fillColor=none;top=0;left=0;bottom=0;right=0;fontStyle=1;" parent="BW3WOsrzkd-29kcLcKj7-151" vertex="1">
          <mxGeometry width="30" height="30" as="geometry">
            <mxRectangle width="30" height="30" as="alternateBounds" />
          </mxGeometry>
        </mxCell>
        <mxCell id="BW3WOsrzkd-29kcLcKj7-153" value="social_idÂ int NOT NULL " style="shape=partialRectangle;overflow=hidden;connectable=0;fillColor=none;top=0;left=0;bottom=0;right=0;align=left;spacingLeft=6;fontStyle=5;" parent="BW3WOsrzkd-29kcLcKj7-151" vertex="1">
          <mxGeometry x="30" width="220" height="30" as="geometry">
            <mxRectangle width="220" height="30" as="alternateBounds" />
          </mxGeometry>
        </mxCell>
        <mxCell id="BW3WOsrzkd-29kcLcKj7-154" value="" style="shape=partialRectangle;collapsible=0;dropTarget=0;pointerEvents=0;fillColor=none;points=[[0,0.5],[1,0.5]];portConstraint=eastwest;top=0;left=0;right=0;bottom=0;" parent="BW3WOsrzkd-29kcLcKj7-150" vertex="1">
          <mxGeometry y="60" width="250" height="30" as="geometry" />
        </mxCell>
        <mxCell id="BW3WOsrzkd-29kcLcKj7-155" value="FK11" style="shape=partialRectangle;overflow=hidden;connectable=0;fillColor=none;top=0;left=0;bottom=0;right=0;" parent="BW3WOsrzkd-29kcLcKj7-154" vertex="1">
          <mxGeometry width="30" height="30" as="geometry">
            <mxRectangle width="30" height="30" as="alternateBounds" />
          </mxGeometry>
        </mxCell>
        <mxCell id="BW3WOsrzkd-29kcLcKj7-156" value="cell_id int NOT NULL" style="shape=partialRectangle;overflow=hidden;connectable=0;fillColor=none;top=0;left=0;bottom=0;right=0;align=left;spacingLeft=6;" parent="BW3WOsrzkd-29kcLcKj7-154" vertex="1">
          <mxGeometry x="30" width="220" height="30" as="geometry">
            <mxRectangle width="220" height="30" as="alternateBounds" />
          </mxGeometry>
        </mxCell>
        <mxCell id="BW3WOsrzkd-29kcLcKj7-166" value="" style="shape=partialRectangle;collapsible=0;dropTarget=0;pointerEvents=0;fillColor=none;points=[[0,0.5],[1,0.5]];portConstraint=eastwest;top=0;left=0;right=0;bottom=0;" parent="BW3WOsrzkd-29kcLcKj7-150" vertex="1">
          <mxGeometry y="90" width="250" height="30" as="geometry" />
        </mxCell>
        <mxCell id="BW3WOsrzkd-29kcLcKj7-167" value="FK12" style="shape=partialRectangle;overflow=hidden;connectable=0;fillColor=none;top=0;left=0;bottom=0;right=0;" parent="BW3WOsrzkd-29kcLcKj7-166" vertex="1">
          <mxGeometry width="30" height="30" as="geometry">
            <mxRectangle width="30" height="30" as="alternateBounds" />
          </mxGeometry>
        </mxCell>
        <mxCell id="BW3WOsrzkd-29kcLcKj7-168" value="responsible cell_id_id int NOT NULL" style="shape=partialRectangle;overflow=hidden;connectable=0;fillColor=none;top=0;left=0;bottom=0;right=0;align=left;spacingLeft=6;" parent="BW3WOsrzkd-29kcLcKj7-166" vertex="1">
          <mxGeometry x="30" width="220" height="30" as="geometry">
            <mxRectangle width="220" height="30" as="alternateBounds" />
          </mxGeometry>
        </mxCell>
        <mxCell id="BW3WOsrzkd-29kcLcKj7-157" value="" style="shape=partialRectangle;collapsible=0;dropTarget=0;pointerEvents=0;fillColor=none;points=[[0,0.5],[1,0.5]];portConstraint=eastwest;top=0;left=0;right=0;bottom=0;" parent="BW3WOsrzkd-29kcLcKj7-150" vertex="1">
          <mxGeometry y="120" width="250" height="30" as="geometry" />
        </mxCell>
        <mxCell id="BW3WOsrzkd-29kcLcKj7-158" value="" style="shape=partialRectangle;overflow=hidden;connectable=0;fillColor=none;top=0;left=0;bottom=0;right=0;" parent="BW3WOsrzkd-29kcLcKj7-157" vertex="1">
          <mxGeometry width="30" height="30" as="geometry">
            <mxRectangle width="30" height="30" as="alternateBounds" />
          </mxGeometry>
        </mxCell>
        <mxCell id="BW3WOsrzkd-29kcLcKj7-159" value="is_active char(1) NOT NULL" style="shape=partialRectangle;overflow=hidden;connectable=0;fillColor=none;top=0;left=0;bottom=0;right=0;align=left;spacingLeft=6;" parent="BW3WOsrzkd-29kcLcKj7-157" vertex="1">
          <mxGeometry x="30" width="220" height="30" as="geometry">
            <mxRectangle width="220" height="30" as="alternateBounds" />
          </mxGeometry>
        </mxCell>
        <mxCell id="BW3WOsrzkd-29kcLcKj7-160" value="" style="shape=partialRectangle;collapsible=0;dropTarget=0;pointerEvents=0;fillColor=none;points=[[0,0.5],[1,0.5]];portConstraint=eastwest;top=0;left=0;right=0;bottom=0;" parent="BW3WOsrzkd-29kcLcKj7-150" vertex="1">
          <mxGeometry y="150" width="250" height="30" as="geometry" />
        </mxCell>
        <mxCell id="BW3WOsrzkd-29kcLcKj7-161" value="" style="shape=partialRectangle;overflow=hidden;connectable=0;fillColor=none;top=0;left=0;bottom=0;right=0;" parent="BW3WOsrzkd-29kcLcKj7-160" vertex="1">
          <mxGeometry width="30" height="30" as="geometry">
            <mxRectangle width="30" height="30" as="alternateBounds" />
          </mxGeometry>
        </mxCell>
        <mxCell id="BW3WOsrzkd-29kcLcKj7-162" value="social_name char(50) NOT NULL" style="shape=partialRectangle;overflow=hidden;connectable=0;fillColor=none;top=0;left=0;bottom=0;right=0;align=left;spacingLeft=6;" parent="BW3WOsrzkd-29kcLcKj7-160" vertex="1">
          <mxGeometry x="30" width="220" height="30" as="geometry">
            <mxRectangle width="220" height="30" as="alternateBounds" />
          </mxGeometry>
        </mxCell>
        <mxCell id="BW3WOsrzkd-29kcLcKj7-163" value="" style="shape=partialRectangle;collapsible=0;dropTarget=0;pointerEvents=0;fillColor=none;points=[[0,0.5],[1,0.5]];portConstraint=eastwest;top=0;left=0;right=0;bottom=0;" parent="BW3WOsrzkd-29kcLcKj7-150" vertex="1">
          <mxGeometry y="180" width="250" height="30" as="geometry" />
        </mxCell>
        <mxCell id="BW3WOsrzkd-29kcLcKj7-164" value="" style="shape=partialRectangle;overflow=hidden;connectable=0;fillColor=none;top=0;left=0;bottom=0;right=0;" parent="BW3WOsrzkd-29kcLcKj7-163" vertex="1">
          <mxGeometry width="30" height="30" as="geometry">
            <mxRectangle width="30" height="30" as="alternateBounds" />
          </mxGeometry>
        </mxCell>
        <mxCell id="BW3WOsrzkd-29kcLcKj7-165" value="social_url char(500) NOT NULL" style="shape=partialRectangle;overflow=hidden;connectable=0;fillColor=none;top=0;left=0;bottom=0;right=0;align=left;spacingLeft=6;" parent="BW3WOsrzkd-29kcLcKj7-163" vertex="1">
          <mxGeometry x="30" width="220" height="30" as="geometry">
            <mxRectangle width="220" height="30" as="alternateBounds" />
          </mxGeometry>
        </mxCell>
        <mxCell id="BW3WOsrzkd-29kcLcKj7-169" value="" style="edgeStyle=entityRelationEdgeStyle;endArrow=ERoneToMany;startArrow=ERone;endFill=1;startFill=1;fillColor=#dae8fc;strokeColor=#6c8ebf;" parent="1" source="C-vyLk0tnHw3VtMMgP7b-14" target="BW3WOsrzkd-29kcLcKj7-154" edge="1">
          <mxGeometry width="100" height="100" relative="1" as="geometry">
            <mxPoint x="703" y="357" as="sourcePoint" />
            <mxPoint x="697" y="713" as="targetPoint" />
            <Array as="points">
              <mxPoint x="785" y="501" />
              <mxPoint x="705" y="390" />
              <mxPoint x="777" y="511" />
            </Array>
          </mxGeometry>
        </mxCell>
        <mxCell id="BW3WOsrzkd-29kcLcKj7-172" value="" style="edgeStyle=entityRelationEdgeStyle;endArrow=ERone;startArrow=ERone;endFill=1;startFill=1;exitX=0.998;exitY=0.158;exitDx=0;exitDy=0;entryX=0;entryY=0.5;entryDx=0;entryDy=0;fillColor=#f8cecc;strokeColor=#b85450;exitPerimeter=0;" parent="1" source="BW3WOsrzkd-29kcLcKj7-2" target="BW3WOsrzkd-29kcLcKj7-166" edge="1">
          <mxGeometry width="100" height="100" relative="1" as="geometry">
            <mxPoint x="461" y="700" as="sourcePoint" />
            <mxPoint x="383" y="996" as="targetPoint" />
            <Array as="points">
              <mxPoint x="516" y="859" />
              <mxPoint x="436" y="748" />
              <mxPoint x="381" y="1001" />
              <mxPoint x="508" y="869" />
            </Array>
          </mxGeometry>
        </mxCell>
        <mxCell id="BW3WOsrzkd-29kcLcKj7-173" value="Starred" style="shape=table;startSize=29;container=1;collapsible=1;childLayout=tableLayout;fixedRows=1;rowLines=0;fontStyle=1;align=center;resizeLast=1;" parent="1" vertex="1">
          <mxGeometry x="-243" y="866" width="250" height="123.07142857142867" as="geometry" />
        </mxCell>
        <mxCell id="BW3WOsrzkd-29kcLcKj7-246" value="" style="shape=partialRectangle;collapsible=0;dropTarget=0;pointerEvents=0;fillColor=none;points=[[0,0.5],[1,0.5]];portConstraint=eastwest;top=0;left=0;right=0;bottom=1;" parent="BW3WOsrzkd-29kcLcKj7-173" vertex="1">
          <mxGeometry y="29" width="250" height="32" as="geometry" />
        </mxCell>
        <mxCell id="BW3WOsrzkd-29kcLcKj7-247" value="PK" style="shape=partialRectangle;overflow=hidden;connectable=0;fillColor=none;top=0;left=0;bottom=0;right=0;fontStyle=1;" parent="BW3WOsrzkd-29kcLcKj7-246" vertex="1">
          <mxGeometry width="33.92857142857159" height="32" as="geometry">
            <mxRectangle width="33.92857142857159" height="32" as="alternateBounds" />
          </mxGeometry>
        </mxCell>
        <mxCell id="BW3WOsrzkd-29kcLcKj7-248" value="person_idÂ int NOT NULL " style="shape=partialRectangle;overflow=hidden;connectable=0;fillColor=none;top=0;left=0;bottom=0;right=0;align=left;spacingLeft=6;fontStyle=5;" parent="BW3WOsrzkd-29kcLcKj7-246" vertex="1">
          <mxGeometry x="33.92857142857159" width="216.0714285714284" height="32" as="geometry">
            <mxRectangle width="216.0714285714284" height="32" as="alternateBounds" />
          </mxGeometry>
        </mxCell>
        <mxCell id="BW3WOsrzkd-29kcLcKj7-174" value="" style="shape=partialRectangle;collapsible=0;dropTarget=0;pointerEvents=0;fillColor=none;points=[[0,0.5],[1,0.5]];portConstraint=eastwest;top=0;left=0;right=0;bottom=1;" parent="BW3WOsrzkd-29kcLcKj7-173" vertex="1">
          <mxGeometry y="61" width="250" height="32" as="geometry" />
        </mxCell>
        <mxCell id="BW3WOsrzkd-29kcLcKj7-175" value="PK" style="shape=partialRectangle;overflow=hidden;connectable=0;fillColor=none;top=0;left=0;bottom=0;right=0;fontStyle=1;" parent="BW3WOsrzkd-29kcLcKj7-174" vertex="1">
          <mxGeometry width="33.92857142857159" height="32" as="geometry">
            <mxRectangle width="33.92857142857159" height="32" as="alternateBounds" />
          </mxGeometry>
        </mxCell>
        <mxCell id="BW3WOsrzkd-29kcLcKj7-176" value="starred_dateÂ  date NOT NULL" style="shape=partialRectangle;overflow=hidden;connectable=0;fillColor=none;top=0;left=0;bottom=0;right=0;align=left;spacingLeft=6;fontStyle=5;strokeColor=default;verticalAlign=middle;fontFamily=Helvetica;fontSize=12;fontColor=default;" parent="BW3WOsrzkd-29kcLcKj7-174" vertex="1">
          <mxGeometry x="33.92857142857159" width="216.0714285714284" height="32" as="geometry">
            <mxRectangle width="216.0714285714284" height="32" as="alternateBounds" />
          </mxGeometry>
        </mxCell>
        <mxCell id="BW3WOsrzkd-29kcLcKj7-189" value="" style="shape=partialRectangle;collapsible=0;dropTarget=0;pointerEvents=0;fillColor=none;points=[[0,0.5],[1,0.5]];portConstraint=eastwest;top=0;left=0;right=0;bottom=0;" parent="BW3WOsrzkd-29kcLcKj7-173" vertex="1">
          <mxGeometry y="93" width="250" height="30" as="geometry" />
        </mxCell>
        <mxCell id="BW3WOsrzkd-29kcLcKj7-190" value="" style="shape=partialRectangle;overflow=hidden;connectable=0;fillColor=none;top=0;left=0;bottom=0;right=0;" parent="BW3WOsrzkd-29kcLcKj7-189" vertex="1">
          <mxGeometry width="33.92857142857159" height="30" as="geometry">
            <mxRectangle width="33.92857142857159" height="30" as="alternateBounds" />
          </mxGeometry>
        </mxCell>
        <mxCell id="BW3WOsrzkd-29kcLcKj7-191" value="pictureÂ  blob NOT NULL" style="shape=partialRectangle;overflow=hidden;connectable=0;fillColor=none;top=0;left=0;bottom=0;right=0;align=left;spacingLeft=6;" parent="BW3WOsrzkd-29kcLcKj7-189" vertex="1">
          <mxGeometry x="33.92857142857159" width="216.0714285714284" height="30" as="geometry">
            <mxRectangle width="216.0714285714284" height="30" as="alternateBounds" />
          </mxGeometry>
        </mxCell>
        <mxCell id="BW3WOsrzkd-29kcLcKj7-196" value="Goal" style="shape=table;startSize=29;container=1;collapsible=1;childLayout=tableLayout;fixedRows=1;rowLines=0;fontStyle=1;align=center;resizeLast=1;" parent="1" vertex="1">
          <mxGeometry x="506" y="713" width="250" height="203.07" as="geometry" />
        </mxCell>
        <mxCell id="BW3WOsrzkd-29kcLcKj7-197" value="" style="shape=partialRectangle;collapsible=0;dropTarget=0;pointerEvents=0;fillColor=none;points=[[0,0.5],[1,0.5]];portConstraint=eastwest;top=0;left=0;right=0;bottom=1;" parent="BW3WOsrzkd-29kcLcKj7-196" vertex="1">
          <mxGeometry y="29" width="250" height="30" as="geometry" />
        </mxCell>
        <mxCell id="BW3WOsrzkd-29kcLcKj7-198" value="PK" style="shape=partialRectangle;overflow=hidden;connectable=0;fillColor=none;top=0;left=0;bottom=0;right=0;fontStyle=1;" parent="BW3WOsrzkd-29kcLcKj7-197" vertex="1">
          <mxGeometry width="33.92857142857159" height="30" as="geometry">
            <mxRectangle width="33.92857142857159" height="30" as="alternateBounds" />
          </mxGeometry>
        </mxCell>
        <mxCell id="BW3WOsrzkd-29kcLcKj7-199" value="goal_idÂ int NOT NULL " style="shape=partialRectangle;overflow=hidden;connectable=0;fillColor=none;top=0;left=0;bottom=0;right=0;align=left;spacingLeft=6;fontStyle=5;" parent="BW3WOsrzkd-29kcLcKj7-197" vertex="1">
          <mxGeometry x="33.92857142857159" width="216.0714285714284" height="30" as="geometry">
            <mxRectangle width="216.0714285714284" height="30" as="alternateBounds" />
          </mxGeometry>
        </mxCell>
        <mxCell id="BW3WOsrzkd-29kcLcKj7-200" value="" style="shape=partialRectangle;collapsible=0;dropTarget=0;pointerEvents=0;fillColor=none;points=[[0,0.5],[1,0.5]];portConstraint=eastwest;top=0;left=0;right=0;bottom=0;" parent="BW3WOsrzkd-29kcLcKj7-196" vertex="1">
          <mxGeometry y="59" width="250" height="30" as="geometry" />
        </mxCell>
        <mxCell id="BW3WOsrzkd-29kcLcKj7-201" value="FK9" style="shape=partialRectangle;overflow=hidden;connectable=0;fillColor=none;top=0;left=0;bottom=0;right=0;" parent="BW3WOsrzkd-29kcLcKj7-200" vertex="1">
          <mxGeometry width="33.92857142857159" height="30" as="geometry">
            <mxRectangle width="33.92857142857159" height="30" as="alternateBounds" />
          </mxGeometry>
        </mxCell>
        <mxCell id="BW3WOsrzkd-29kcLcKj7-202" value="cell_id int NULL" style="shape=partialRectangle;overflow=hidden;connectable=0;fillColor=none;top=0;left=0;bottom=0;right=0;align=left;spacingLeft=6;" parent="BW3WOsrzkd-29kcLcKj7-200" vertex="1">
          <mxGeometry x="33.92857142857159" width="216.0714285714284" height="30" as="geometry">
            <mxRectangle width="216.0714285714284" height="30" as="alternateBounds" />
          </mxGeometry>
        </mxCell>
        <mxCell id="BW3WOsrzkd-29kcLcKj7-203" value="" style="shape=partialRectangle;collapsible=0;dropTarget=0;pointerEvents=0;fillColor=none;points=[[0,0.5],[1,0.5]];portConstraint=eastwest;top=0;left=0;right=0;bottom=0;" parent="BW3WOsrzkd-29kcLcKj7-196" vertex="1">
          <mxGeometry y="89" width="250" height="23" as="geometry" />
        </mxCell>
        <mxCell id="BW3WOsrzkd-29kcLcKj7-204" value="FK10" style="shape=partialRectangle;overflow=hidden;connectable=0;fillColor=none;top=0;left=0;bottom=0;right=0;" parent="BW3WOsrzkd-29kcLcKj7-203" vertex="1">
          <mxGeometry width="33.92857142857159" height="23" as="geometry">
            <mxRectangle width="33.92857142857159" height="23" as="alternateBounds" />
          </mxGeometry>
        </mxCell>
        <mxCell id="BW3WOsrzkd-29kcLcKj7-205" value="person_id intÂ NULL" style="shape=partialRectangle;overflow=hidden;connectable=0;fillColor=none;top=0;left=0;bottom=0;right=0;align=left;spacingLeft=6;" parent="BW3WOsrzkd-29kcLcKj7-203" vertex="1">
          <mxGeometry x="33.92857142857159" width="216.0714285714284" height="23" as="geometry">
            <mxRectangle width="216.0714285714284" height="23" as="alternateBounds" />
          </mxGeometry>
        </mxCell>
        <mxCell id="BW3WOsrzkd-29kcLcKj7-209" value="" style="shape=partialRectangle;collapsible=0;dropTarget=0;pointerEvents=0;fillColor=none;points=[[0,0.5],[1,0.5]];portConstraint=eastwest;top=0;left=0;right=0;bottom=0;" parent="BW3WOsrzkd-29kcLcKj7-196" vertex="1">
          <mxGeometry y="112" width="250" height="30" as="geometry" />
        </mxCell>
        <mxCell id="BW3WOsrzkd-29kcLcKj7-210" value="" style="shape=partialRectangle;overflow=hidden;connectable=0;fillColor=none;top=0;left=0;bottom=0;right=0;" parent="BW3WOsrzkd-29kcLcKj7-209" vertex="1">
          <mxGeometry width="33.92857142857159" height="30" as="geometry">
            <mxRectangle width="33.92857142857159" height="30" as="alternateBounds" />
          </mxGeometry>
        </mxCell>
        <mxCell id="BW3WOsrzkd-29kcLcKj7-211" value="goal_date date NULL" style="shape=partialRectangle;overflow=hidden;connectable=0;fillColor=none;top=0;left=0;bottom=0;right=0;align=left;spacingLeft=6;" parent="BW3WOsrzkd-29kcLcKj7-209" vertex="1">
          <mxGeometry x="33.92857142857159" width="216.0714285714284" height="30" as="geometry">
            <mxRectangle width="216.0714285714284" height="30" as="alternateBounds" />
          </mxGeometry>
        </mxCell>
        <mxCell id="BW3WOsrzkd-29kcLcKj7-230" value="" style="shape=partialRectangle;collapsible=0;dropTarget=0;pointerEvents=0;fillColor=none;points=[[0,0.5],[1,0.5]];portConstraint=eastwest;top=0;left=0;right=0;bottom=0;" parent="BW3WOsrzkd-29kcLcKj7-196" vertex="1">
          <mxGeometry y="142" width="250" height="30" as="geometry" />
        </mxCell>
        <mxCell id="BW3WOsrzkd-29kcLcKj7-231" value="" style="shape=partialRectangle;overflow=hidden;connectable=0;fillColor=none;top=0;left=0;bottom=0;right=0;" parent="BW3WOsrzkd-29kcLcKj7-230" vertex="1">
          <mxGeometry width="33.92857142857159" height="30" as="geometry">
            <mxRectangle width="33.92857142857159" height="30" as="alternateBounds" />
          </mxGeometry>
        </mxCell>
        <mxCell id="BW3WOsrzkd-29kcLcKj7-232" value="picture blob NULL" style="shape=partialRectangle;overflow=hidden;connectable=0;fillColor=none;top=0;left=0;bottom=0;right=0;align=left;spacingLeft=6;" parent="BW3WOsrzkd-29kcLcKj7-230" vertex="1">
          <mxGeometry x="33.92857142857159" width="216.0714285714284" height="30" as="geometry">
            <mxRectangle width="216.0714285714284" height="30" as="alternateBounds" />
          </mxGeometry>
        </mxCell>
        <mxCell id="BW3WOsrzkd-29kcLcKj7-215" value="" style="shape=partialRectangle;collapsible=0;dropTarget=0;pointerEvents=0;fillColor=none;points=[[0,0.5],[1,0.5]];portConstraint=eastwest;top=0;left=0;right=0;bottom=0;" parent="BW3WOsrzkd-29kcLcKj7-196" vertex="1">
          <mxGeometry y="172" width="250" height="30" as="geometry" />
        </mxCell>
        <mxCell id="BW3WOsrzkd-29kcLcKj7-216" value="" style="shape=partialRectangle;overflow=hidden;connectable=0;fillColor=none;top=0;left=0;bottom=0;right=0;" parent="BW3WOsrzkd-29kcLcKj7-215" vertex="1">
          <mxGeometry width="33.92857142857159" height="30" as="geometry">
            <mxRectangle width="33.92857142857159" height="30" as="alternateBounds" />
          </mxGeometry>
        </mxCell>
        <mxCell id="BW3WOsrzkd-29kcLcKj7-217" value="goal_url char(500) NULL" style="shape=partialRectangle;overflow=hidden;connectable=0;fillColor=none;top=0;left=0;bottom=0;right=0;align=left;spacingLeft=6;" parent="BW3WOsrzkd-29kcLcKj7-215" vertex="1">
          <mxGeometry x="33.92857142857159" width="216.0714285714284" height="30" as="geometry">
            <mxRectangle width="216.0714285714284" height="30" as="alternateBounds" />
          </mxGeometry>
        </mxCell>
        <mxCell id="BW3WOsrzkd-29kcLcKj7-233" value="" style="edgeStyle=entityRelationEdgeStyle;endArrow=ERzeroToMany;startArrow=ERone;endFill=1;startFill=0;fillColor=#dae8fc;strokeColor=#6c8ebf;entryX=0;entryY=0.5;entryDx=0;entryDy=0;exitX=1;exitY=0.5;exitDx=0;exitDy=0;" parent="1" source="BW3WOsrzkd-29kcLcKj7-2" target="BW3WOsrzkd-29kcLcKj7-197" edge="1">
          <mxGeometry width="100" height="100" relative="1" as="geometry">
            <mxPoint x="397" y="900" as="sourcePoint" />
            <mxPoint x="400" y="824" as="targetPoint" />
            <Array as="points">
              <mxPoint x="154" y="904" />
              <mxPoint x="626" y="890" />
              <mxPoint x="74" y="793" />
              <mxPoint x="146" y="914" />
            </Array>
          </mxGeometry>
        </mxCell>
        <mxCell id="BW3WOsrzkd-29kcLcKj7-218" value="" style="edgeStyle=entityRelationEdgeStyle;endArrow=ERone;startArrow=ERone;endFill=1;startFill=0;fillColor=#dae8fc;strokeColor=#6c8ebf;entryX=1;entryY=0.5;entryDx=0;entryDy=0;" parent="1" source="BW3WOsrzkd-29kcLcKj7-197" target="C-vyLk0tnHw3VtMMgP7b-14" edge="1">
          <mxGeometry width="100" height="100" relative="1" as="geometry">
            <mxPoint x="596" y="942" as="sourcePoint" />
            <mxPoint x="483" y="401" as="targetPoint" />
            <Array as="points">
              <mxPoint x="497" y="868" />
              <mxPoint x="969" y="854" />
              <mxPoint x="417" y="757" />
              <mxPoint x="489" y="878" />
            </Array>
          </mxGeometry>
        </mxCell>
        <mxCell id="BW3WOsrzkd-29kcLcKj7-235" value="" style="edgeStyle=entityRelationEdgeStyle;endArrow=ERoneToMany;startArrow=ERone;endFill=1;startFill=1;entryX=1;entryY=0.5;entryDx=0;entryDy=0;exitX=0;exitY=0.5;exitDx=0;exitDy=0;fillColor=#dae8fc;strokeColor=#6c8ebf;" parent="1" source="BW3WOsrzkd-29kcLcKj7-2" target="BW3WOsrzkd-29kcLcKj7-174" edge="1">
          <mxGeometry width="100" height="100" relative="1" as="geometry">
            <mxPoint x="13" y="776" as="sourcePoint" />
            <mxPoint x="-61" y="723" as="targetPoint" />
            <Array as="points">
              <mxPoint x="-78" y="835" />
              <mxPoint x="-158" y="724" />
              <mxPoint x="-86" y="845" />
            </Array>
          </mxGeometry>
        </mxCell>
      </root>
    </mxGraphModel>
  </diagram>
</mxfile>
